<svg version="1.1" xmlns="http://www.w3.org/2000/svg" xmlns:xlink="http://www.w3.org/1999/xlink" width="38.6017" height="49.10547" viewBox="0,0,38.6017,49.10547"><g transform="translate(-134.66048,-263.60214)"><g data-paper-data="{&quot;isPaintingLayer&quot;:true}" fill-rule="nonzero" stroke="none" stroke-width="1.15528" stroke-linecap="butt" stroke-linejoin="miter" stroke-miterlimit="10" stroke-dasharray="" stroke-dashoffset="0" style="mix-blend-mode: normal"><g><path d="M163.30867,275.51181l-0.6437,34.14806l-24.89645,-13.6106l25.54016,-20.53746" fill="#ff00b7"/><path d="M149.60519,286.53123l6.19658,-4.98259c0.2918,0.10237 0.57806,0.23519 0.85385,0.39976c2.22244,1.32622 2.94923,4.204 1.62302,6.42644c-1.32625,2.22249 -4.20335,2.94962 -6.42644,1.62302c-1.29678,-0.77384 -2.07919,-2.07569 -2.24701,-3.46664z" fill="#8100ff"/><path d="M161.82013,293.43963c0.46192,0.27564 0.83838,0.6379 1.13046,1.05108l-0.08271,4.40393c-1.13465,1.49683 -3.22578,1.94673 -4.87675,0.96153c-1.77238,-1.05765 -2.35115,-3.3515 -1.29386,-5.12329c1.05726,-1.77173 3.35086,-2.35154 5.12285,-1.29324z" fill="#2ec7ff"/><path d="M152.47828,293.02739c0.70532,0.42089 1.17316,1.08839 1.36029,1.82734c0.18618,0.73918 0.09135,1.54883 -0.32954,2.25415c-0.42089,0.70532 -1.08839,1.17316 -1.82737,1.36034c-0.73915,0.18613 -1.54878,0.09139 -2.2541,-0.32951c-0.70537,-0.42092 -1.17318,-1.08848 -1.36034,-1.82737c-0.18615,-0.73924 -0.09135,-1.54883 0.32954,-2.25415c0.42089,-0.70532 1.08842,-1.17321 1.82737,-1.36034c0.73918,-0.18618 1.54878,-0.09139 2.25415,0.32954z" fill="#ffff00"/><path d="M145.19608,299.66943c-0.06685,0.11203 -0.14113,0.21802 -0.21518,0.32239l-7.21238,-3.94255l4.30495,-3.46227c0.50748,0.10451 1.00735,0.2896 1.4774,0.5701c2.25235,1.34406 2.98892,4.26057 1.64521,6.51232z" fill="#ffb903"/><path d="M159.01158,307.66295l-6.82305,-3.73054c0.09138,-0.41483 0.24656,-0.82207 0.47612,-1.20676c1.14717,-1.9224 3.63527,-2.55078 5.55767,-1.40361c1.9224,1.14717 2.55078,3.63527 1.40361,5.55767c-0.17496,0.2932 -0.38409,0.55168 -0.61434,0.78324z" fill="#dc5991"/><path d="M163.24775,278.72066l-0.11417,6.05252c-0.58125,0.03051 -1.1779,-0.10434 -1.71515,-0.42493c-1.44179,-0.86037 -1.9126,-2.72677 -1.05259,-4.16796c0.61817,-1.03591 1.75577,-1.5601 2.8819,-1.45962z" fill="#ff6b00"/></g><path d="M167.98733,273.8623l1.68617,3.99477l-3.30727,-2.53582l-0.19581,6.99572l-2.01342,-6.14277l-4.02007,7.68027l2.71982,-9.49371l-7.34486,-2.81521l6.56681,-0.32189l-4.18876,-7.62152l6.82815,6.26287l2.22216,-5.52483l-0.50477,6.67463l6.8267,1.25151l-5.27486,1.59597" fill="#71ff00"/><path d="M134.66048,296.80827l4.85535,-4.18231l0.83537,4.03834l4.03989,-0.0966l0.61402,2.43145l3.4314,-0.31203l0.33426,3.14922l4.99109,-1.81515l0.96652,4.18924l3.60435,-0.3557l2.22525,3.68837l5.2086,-2.05511l-2.98111,7.21962l-3.83125,-3.4673l-3.86475,0.79208l-1.81271,-3.88459l-4.64645,0.61944l-2.57387,-4.33793l-4.51586,1.14049l0.07898,-3.34663l-3.69232,0.00937l-0.6373,-2.88766l-2.62946,-0.53662" fill="#71ff00"/></g></g></svg>